Coordinates
version=1
nRows=15
nColumns=42
inDegrees=yes

Units are S.I. units (second, meters, Newtons, ...)
If the header above contains a line with 'inDegrees', this indicates whether rotational values are in degrees (yes) or radians (no).

endheader
time	pelvis_tilt	pelvis_list	pelvis_rotation	pelvis_tx	pelvis_ty	pelvis_tz	hip_flexion_r	hip_adduction_r	hip_rotation_r	knee_angle_r	knee_adduction_r	knee_angle_r_beta	ankle_angle_r	subtalar_angle_r	mtp_angle_r	hip_flexion_l	hip_adduction_l	hip_rotation_l	knee_angle_l	knee_adduction_l	knee_angle_l_beta	ankle_angle_l	subtalar_angle_l	mtp_angle_l	lumbar_extension	lumbar_bending	lumbar_rotation	arm_flex_r	arm_add_r	arm_rot_r	elbow_flex_r	pro_sup_r	wrist_flex_r	wrist_dev_r	arm_flex_l	arm_add_l	arm_rot_l	elbow_flex_l	pro_sup_l	wrist_flex_l	wrist_dev_l
      0.21000000	     -3.26352604	     -1.60218175	     -7.88437061	     -2.43734982	      0.83043741	      0.14401815	     -8.11858114	     -0.02660303	      1.47533153	     21.89343934	      7.25559590	      0.38211260	     12.01634297	      1.90543919	     -9.54230165	     27.46738998	     -8.93475320	     -6.18519302	     14.78936390	      9.25444399	      0.25812309	      2.82059030	     -9.59495498	     -9.54230165	     -7.27973495	     -2.16549795	     15.31042744	     13.19764800	    -28.83622498	      9.63048139	     50.41458137	     90.00000001	      0.00000000	      0.00000000	    -11.31530419	     -9.11613448	    -32.57313392	     37.03453939	     90.00000001	      0.00000000	      0.00000000
      0.22000000	     -3.17569475	     -1.20317280	     -7.83731498	     -2.42445583	      0.83125615	      0.14360607	     -7.76028542	     -0.62804561	      1.59117546	     24.15673956	      7.34002290	      0.42161464	     10.23265004	      1.26550432	     -9.49508536	     27.07499800	     -8.41864178	     -6.10710913	     15.78221271	      9.26961260	      0.27545158	      2.48942842	     -9.60923145	     -9.49508536	     -7.18984450	     -2.78408992	     15.10801587	     12.59486042	    -28.48855872	      9.58325374	     50.37532336	     90.00000001	      0.00000000	      0.00000000	    -11.55767869	     -9.23978780	    -32.51627900	     36.89773201	     90.00000001	      0.00000000	      0.00000000
      0.23000000	     -3.09090317	     -0.80469590	     -7.70373553	     -2.41160778	      0.83237103	      0.14307061	     -7.25870304	     -1.23306210	      1.69876273	     26.60362867	      7.52580178	      0.46432091	      8.04017592	      0.24271606	     -9.46702836	     26.63948916	     -7.89441496	     -5.70147073	     16.66960963	      9.40521680	      0.29093957	      2.03237441	     -9.92358895	     -9.46702836	     -7.12167828	     -3.38746059	     14.79812995	     11.95912614	    -28.07528637	      9.48235370	     50.26269323	     90.00000001	      0.00000000	      0.00000000	    -11.66143533	     -9.38178869	    -32.46582344	     36.63672456	     90.00000001	      0.00000000	      0.00000000
      0.24000000	     -3.11749108	     -0.45964920	     -7.44987670	     -2.39879932	      0.83377190	      0.14250763	     -6.61644200	     -1.68049320	      2.33534309	     28.96876322	      7.94271302	      0.50560030	      4.72922701	     -3.27821477	     -9.30464036	     26.21257375	     -7.38767522	     -4.61411964	     17.26831025	      9.71165903	      0.30138887	      1.03266306	    -11.67548501	     -9.30464036	     -6.94091602	     -3.92274778	     14.47479431	     11.07267116	    -27.37634931	      8.49847120	     50.01596460	     90.00000001	      0.00000000	      0.00000000	    -11.51469902	     -9.67859186	    -32.09019607	     35.97462158	     90.00000001	      0.00000000	      0.00000000
      0.25000000	     -3.03081944	     -0.08182192	     -7.18177138	     -2.38602218	      0.83531894	      0.14180444	     -5.78209712	     -2.24142189	      2.04584900	     31.88601263	      8.05419456	      0.55651591	      1.58160262	     -5.06258610	     -9.21033488	     25.66192233	     -6.83184697	     -3.78793015	     17.89614252	      9.98231808	      0.31234661	      0.68871541	    -12.41611910	     -9.21033488	     -6.90264107	     -4.47072665	     13.94895818	     10.42606764	    -26.83090683	      8.39445587	     49.70449033	     90.00000001	      0.00000000	      0.00000000	    -11.52971367	     -9.85736601	    -31.87400624	     35.73419541	     90.00000001	      0.00000000	      0.00000000
      0.26000000	     -2.93768338	      0.34556427	     -6.87655552	     -2.37334280	      0.83700462	      0.14088885	     -4.81864156	     -2.90978599	      1.93826792	     34.92518159	      8.34612228	      0.60955941	     -1.84967312	     -7.51580091	     -9.07733386	     25.01052934	     -6.12250485	     -2.69887248	     18.28378498	     10.22440329	      0.31911225	      0.47283643	    -13.49864663	     -9.07733386	     -6.87505748	     -5.03618992	     13.42248644	      9.71332088	    -26.25106607	      8.08389817	     49.22972535	     90.00000001	      0.00000000	      0.00000000	    -11.41913041	    -10.08113341	    -31.46153898	     35.45685356	     90.00000001	      0.00000000	      0.00000000
      0.27000000	     -2.85032573	      0.84113219	     -6.61996039	     -2.36079928	      0.83860094	      0.13989445	     -3.57623975	     -3.68575720	      1.27525082	     38.34847068	      8.25054435	      0.66930708	     -4.89920665	     -8.75417433	     -9.04635305	     24.33315360	     -5.35304342	     -1.99842474	     18.64961164	     10.39083755	      0.32549713	      0.79519362	    -13.78250644	     -9.04635305	     -6.85455756	     -5.63338090	     12.82135241	      9.04594097	    -25.70917573	      8.13186300	     48.89910725	     90.00000001	      0.00000000	      0.00000000	    -11.35786032	    -10.22597799	    -31.28503798	     35.31798378	     90.00000001	      0.00000000	      0.00000000
      0.28000000	     -2.79778623	      1.17515863	     -6.29605587	     -2.34852034	      0.84024507	      0.13890887	     -2.24971161	     -4.21994256	      1.05851929	     41.67413304	      8.30714175	      0.72735083	     -8.42364109	    -11.61650826	     -8.93310790	     23.61346194	     -4.72057185	     -0.91133283	     18.81811715	     10.65892720	      0.32843810	      0.86179275	    -14.71012398	     -8.93310790	     -6.83321660	     -6.02385608	     12.15319386	      8.51727156	    -25.04916448	      7.82717541	     48.20628662	     90.00000001	      0.00000000	      0.00000000	    -11.21016818	    -10.39882338	    -30.62962069	     35.13139576	     90.00000001	      0.00000000	      0.00000000
      0.29000000	     -2.77953826	      1.63223106	     -6.05416402	     -2.33648035	      0.84169291	      0.13778541	     -0.64144929	     -4.94744872	      0.45941457	     45.22278441	      8.01345834	      0.78928648	    -10.82160866	    -12.77029371	     -8.90448846	     22.89542242	     -3.92356491	     -0.32823719	     18.94111731	     10.71311535	      0.33058486	      1.45883081	    -14.89619759	     -8.90448846	     -6.78737394	     -6.49636625	     11.49879708	      7.91084396	    -24.56269066	      7.89589376	     47.81413488	     90.00000001	      0.00000000	      0.00000000	    -11.02527390	    -10.51252654	    -30.42694526	     35.10325055	     90.00000001	      0.00000000	      0.00000000
      0.30000000	     -2.79455112	      1.91261339	     -5.79508463	     -2.32469902	      0.84311368	      0.13680006	      1.05265346	     -5.40244563	     -0.01850169	     48.59086793	      7.63442699	      0.84807063	    -13.23634626	    -14.67221274	     -8.82499430	     22.14994412	     -3.33407797	      0.32543093	     18.95192326	     10.81598497	      0.33077346	      1.95915483	    -15.25924910	     -8.82499430	     -6.73968167	     -6.75701522	     10.81666292	      7.48445020	    -23.95655620	      7.79912074	     47.06367633	     90.00000001	      0.00000000	      0.00000000	    -10.83631648	    -10.63820982	    -29.86881022	     35.09688730	     90.00000001	      0.00000000	      0.00000000
      0.31000000	     -2.87815045	      2.26423143	     -5.67046040	     -2.31319407	      0.84437575	      0.13578049	      2.95447015	     -5.96085188	     -0.26842911	     51.85789266	      7.27940639	      0.90509097	    -14.26165404	    -15.48237374	     -8.80632587	     21.39689626	     -2.68076299	      0.63904637	     18.83046316	     10.78907620	      0.32865358	      2.70781874	    -15.31606208	     -8.80632587	     -6.62131555	     -7.05052972	     10.24626955	      6.91887164	    -23.50498538	      7.89213698	     46.63764686	     90.00000001	      0.00000000	      0.00000000	    -10.55272667	    -10.67106052	    -29.67199244	     35.14453502	     90.00000001	      0.00000000	      0.00000000
      0.32000000	     -2.97008535	      2.38992459	     -5.49851811	     -2.30193369	      0.84562459	      0.13494263	      4.89575014	     -6.18837864	     -0.93587193	     54.83495419	      6.51492609	      0.95705050	    -15.17350056	    -16.38816174	     -8.76578391	     20.65894045	     -2.29635233	      0.93020882	     18.75294447	     10.79192113	      0.32730063	      3.41833867	    -15.30599411	     -8.76578391	     -6.55375846	     -7.08341274	      9.62066508	      6.57957856	    -22.98557137	      7.89296596	     45.82354339	     90.00000001	      0.00000000	      0.00000000	    -10.23279219	    -10.74345662	    -29.21610397	     35.20176393	     90.00000001	      0.00000000	      0.00000000
      0.33000000	     -2.94908288	      2.37848356	     -5.51320130	     -2.29089644	      0.84699383	      0.13430911	      6.72453554	     -6.22316882	     -0.96776974	     57.43668527	      6.08094986	      1.00245927	    -14.80434788	    -16.58566650	     -8.74609229	     19.71872054	     -2.16078600	      0.79072051	     18.60829339	     10.80115846	      0.32477599	      4.07752286	    -14.93256902	     -8.74609229	     -6.66634685	     -6.94900610	      9.16285731	      6.18906382	    -22.68358171	      7.94849465	     45.49617901	     90.00000001	      0.00000000	      0.00000000	     -9.82684625	    -10.67460984	    -28.98303107	     35.39533905	     90.00000001	      0.00000000	      0.00000000
      0.34000000	     -3.20064047	      2.43478902	     -5.49547350	     -2.27992354	      0.84809787	      0.13372640	      8.92295010	     -6.29270527	     -1.44035444	     59.77626297	      5.33605603	      1.04329260	    -14.08774337	    -17.11353973	     -8.72316855	     19.00264128	     -1.89250844	      0.71575591	     18.28874097	     10.64490074	      0.31919875	      5.04731971	    -14.69075918	     -8.72316855	     -6.39963705	     -6.88365458	      8.78832603	      5.59613357	    -22.22925028	      8.06378271	     44.78428054	     90.00000001	      0.00000000	      0.00000000	     -9.41837371	    -10.70215503	    -28.67055562	     35.54380742	     90.00000001	      0.00000000	      0.00000000
      0.35000000	     -3.34409198	      2.21960014	     -5.44939166	     -2.26914374	      0.84937062	      0.13336784	     10.96548936	     -5.96654639	     -2.19274142	     61.64798398	      4.33274322	      1.07596030	    -13.14413559	    -17.15833873	     -8.66128000	     18.17808798	     -1.98046997	      0.68403606	     18.02552512	     10.61010464	      0.31460476	      5.97454478	    -14.25813778	     -8.66128000	     -6.33793592	     -6.52192037	      8.29313900	      5.53113898	    -21.68709607	      8.07686747	     43.31428848	     90.00000001	      0.00000000	      0.00000000	     -9.02438455	    -10.78843964	    -27.88787921	     35.63475299	     90.00000001	      0.00000000	      0.00000000
